<svg width="171" height="36" viewBox="0 0 171 36" fill="none" xmlns="http://www.w3.org/2000/svg">
<path d="M38.517 27V9.54545H45.4034C46.7273 9.54545 47.8551 9.7983 48.7869 10.304C49.7188 10.804 50.429 11.5 50.9176 12.392C51.4119 13.2784 51.6591 14.3011 51.6591 15.4602C51.6591 16.6193 51.4091 17.642 50.9091 18.5284C50.4091 19.4148 49.6847 20.1051 48.7358 20.5994C47.7926 21.0937 46.6506 21.3409 45.3097 21.3409H40.9205V18.3835H44.7131C45.4233 18.3835 46.0085 18.2614 46.4688 18.017C46.9347 17.767 47.2813 17.4233 47.5085 16.9858C47.7415 16.5426 47.858 16.0341 47.858 15.4602C47.858 14.8807 47.7415 14.375 47.5085 13.9432C47.2813 13.5057 46.9347 13.1676 46.4688 12.929C46.0028 12.6847 45.4119 12.5625 44.696 12.5625H42.2074V27H38.517ZM57.6186 19.4318V27H53.9879V9.54545H57.5163V16.2188H57.6697C57.9652 15.446 58.4425 14.8409 59.1016 14.4034C59.7607 13.9602 60.5874 13.7386 61.5817 13.7386C62.4908 13.7386 63.2834 13.9375 63.9595 14.3352C64.6413 14.7273 65.1697 15.2926 65.5447 16.0312C65.9254 16.7642 66.1129 17.642 66.1072 18.6648V27H62.4766V19.3125C62.4822 18.5057 62.2777 17.8778 61.8629 17.429C61.4538 16.9801 60.88 16.7557 60.1413 16.7557C59.647 16.7557 59.2095 16.8608 58.8288 17.071C58.4538 17.2812 58.1584 17.5881 57.9425 17.9915C57.7322 18.3892 57.6243 18.8693 57.6186 19.4318ZM74.8793 27.2557C73.5554 27.2557 72.4105 26.9744 71.4446 26.4119C70.4844 25.8437 69.7429 25.054 69.2202 24.0426C68.6974 23.0256 68.4361 21.8466 68.4361 20.5057C68.4361 19.1534 68.6974 17.9716 69.2202 16.9602C69.7429 15.9432 70.4844 15.1534 71.4446 14.5909C72.4105 14.0227 73.5554 13.7386 74.8793 13.7386C76.2031 13.7386 77.3452 14.0227 78.3054 14.5909C79.2713 15.1534 80.0156 15.9432 80.5384 16.9602C81.0611 17.9716 81.3224 19.1534 81.3224 20.5057C81.3224 21.8466 81.0611 23.0256 80.5384 24.0426C80.0156 25.054 79.2713 25.8437 78.3054 26.4119C77.3452 26.9744 76.2031 27.2557 74.8793 27.2557ZM74.8963 24.4432C75.4986 24.4432 76.0014 24.2727 76.4048 23.9318C76.8082 23.5852 77.1122 23.1136 77.3168 22.517C77.527 21.9205 77.6321 21.2415 77.6321 20.4801C77.6321 19.7188 77.527 19.0398 77.3168 18.4432C77.1122 17.8466 76.8082 17.375 76.4048 17.0284C76.0014 16.6818 75.4986 16.5085 74.8963 16.5085C74.2884 16.5085 73.777 16.6818 73.3622 17.0284C72.9531 17.375 72.6435 17.8466 72.4332 18.4432C72.2287 19.0398 72.1264 19.7188 72.1264 20.4801C72.1264 21.2415 72.2287 21.9205 72.4332 22.517C72.6435 23.1136 72.9531 23.5852 73.3622 23.9318C73.777 24.2727 74.2884 24.4432 74.8963 24.4432ZM90.6463 13.9091V16.6364H82.7628V13.9091H90.6463ZM84.5526 10.7727H88.1832V22.9773C88.1832 23.3125 88.2344 23.5739 88.3366 23.7614C88.4389 23.9432 88.581 24.071 88.7628 24.1449C88.9503 24.2187 89.1662 24.2557 89.4105 24.2557C89.581 24.2557 89.7514 24.2415 89.9219 24.2131C90.0923 24.179 90.223 24.1534 90.3139 24.1364L90.8849 26.8381C90.7031 26.8949 90.4474 26.9602 90.1179 27.0341C89.7884 27.1136 89.3878 27.1619 88.9162 27.179C88.0412 27.2131 87.2741 27.0966 86.6151 26.8295C85.9616 26.5625 85.4531 26.1477 85.0895 25.5852C84.7259 25.0227 84.5469 24.3125 84.5526 23.4545V10.7727ZM98.7855 27.2557C97.4616 27.2557 96.3168 26.9744 95.3509 26.4119C94.3906 25.8437 93.6491 25.054 93.1264 24.0426C92.6037 23.0256 92.3423 21.8466 92.3423 20.5057C92.3423 19.1534 92.6037 17.9716 93.1264 16.9602C93.6491 15.9432 94.3906 15.1534 95.3509 14.5909C96.3168 14.0227 97.4616 13.7386 98.7855 13.7386C100.109 13.7386 101.251 14.0227 102.212 14.5909C103.178 15.1534 103.922 15.9432 104.445 16.9602C104.967 17.9716 105.229 19.1534 105.229 20.5057C105.229 21.8466 104.967 23.0256 104.445 24.0426C103.922 25.054 103.178 25.8437 102.212 26.4119C101.251 26.9744 100.109 27.2557 98.7855 27.2557ZM98.8026 24.4432C99.4048 24.4432 99.9077 24.2727 100.311 23.9318C100.714 23.5852 101.018 23.1136 101.223 22.517C101.433 21.9205 101.538 21.2415 101.538 20.4801C101.538 19.7188 101.433 19.0398 101.223 18.4432C101.018 17.8466 100.714 17.375 100.311 17.0284C99.9077 16.6818 99.4048 16.5085 98.8026 16.5085C98.1946 16.5085 97.6832 16.6818 97.2685 17.0284C96.8594 17.375 96.5497 17.8466 96.3395 18.4432C96.1349 19.0398 96.0327 19.7188 96.0327 20.4801C96.0327 21.2415 96.1349 21.9205 96.3395 22.517C96.5497 23.1136 96.8594 23.5852 97.2685 23.9318C97.6832 24.2727 98.1946 24.4432 98.8026 24.4432ZM113.487 32.1818C112.311 32.1818 111.303 32.0199 110.462 31.696C109.626 31.3778 108.962 30.9432 108.467 30.392C107.973 29.8409 107.652 29.2216 107.504 28.5341L110.862 28.0824C110.964 28.3438 111.126 28.5881 111.348 28.8153C111.57 29.0426 111.862 29.2244 112.226 29.3608C112.595 29.5028 113.044 29.5739 113.572 29.5739C114.362 29.5739 115.013 29.3807 115.524 28.9943C116.041 28.6136 116.3 27.9744 116.3 27.0767V24.6818H116.146C115.987 25.0455 115.749 25.3892 115.43 25.7131C115.112 26.0369 114.703 26.3011 114.203 26.5057C113.703 26.7102 113.107 26.8125 112.413 26.8125C111.43 26.8125 110.536 26.5852 109.729 26.1307C108.928 25.6705 108.288 24.9687 107.811 24.0256C107.339 23.0767 107.104 21.8778 107.104 20.429C107.104 18.946 107.345 17.7074 107.828 16.7131C108.311 15.7187 108.953 14.9744 109.754 14.4801C110.561 13.9858 111.445 13.7386 112.405 13.7386C113.138 13.7386 113.751 13.8636 114.246 14.1136C114.74 14.358 115.138 14.6648 115.439 15.0341C115.746 15.3977 115.982 15.7557 116.146 16.108H116.283V13.9091H119.888V27.1278C119.888 28.2415 119.615 29.1733 119.07 29.9233C118.524 30.6733 117.768 31.2358 116.803 31.6108C115.842 31.9915 114.737 32.1818 113.487 32.1818ZM113.564 24.0852C114.149 24.0852 114.643 23.9403 115.047 23.6506C115.456 23.3551 115.768 22.9347 115.984 22.3892C116.206 21.8381 116.317 21.179 116.317 20.4119C116.317 19.6449 116.209 18.9801 115.993 18.4176C115.777 17.8494 115.464 17.4091 115.055 17.0966C114.646 16.7841 114.149 16.6278 113.564 16.6278C112.967 16.6278 112.464 16.7898 112.055 17.1136C111.646 17.4318 111.337 17.875 111.126 18.4432C110.916 19.0114 110.811 19.6676 110.811 20.4119C110.811 21.1676 110.916 21.821 111.126 22.3722C111.342 22.9176 111.652 23.3409 112.055 23.642C112.464 23.9375 112.967 24.0852 113.564 24.0852ZM122.777 27V13.9091H126.297V16.1932H126.433C126.672 15.3807 127.072 14.767 127.635 14.3523C128.197 13.9318 128.845 13.7216 129.578 13.7216C129.76 13.7216 129.956 13.733 130.166 13.7557C130.376 13.7784 130.561 13.8097 130.72 13.8494V17.071C130.55 17.0199 130.314 16.9744 130.013 16.9347C129.712 16.8949 129.436 16.875 129.186 16.875C128.652 16.875 128.175 16.9915 127.754 17.2244C127.339 17.4517 127.01 17.7699 126.766 18.179C126.527 18.5881 126.408 19.0597 126.408 19.5938V27H122.777ZM135.955 27.2472C135.12 27.2472 134.376 27.1023 133.722 26.8125C133.069 26.517 132.552 26.0824 132.171 25.5085C131.796 24.929 131.609 24.2074 131.609 23.3438C131.609 22.6165 131.742 22.0057 132.009 21.5114C132.276 21.017 132.64 20.6193 133.1 20.3182C133.56 20.017 134.083 19.7898 134.668 19.6364C135.259 19.483 135.879 19.375 136.526 19.3125C137.288 19.233 137.901 19.1591 138.367 19.0909C138.833 19.017 139.171 18.9091 139.381 18.767C139.592 18.625 139.697 18.4148 139.697 18.1364V18.0852C139.697 17.5455 139.526 17.1278 139.185 16.8324C138.85 16.5369 138.373 16.3892 137.754 16.3892C137.1 16.3892 136.58 16.5341 136.194 16.8239C135.808 17.108 135.552 17.4659 135.427 17.8977L132.069 17.625C132.239 16.8295 132.575 16.142 133.075 15.5625C133.575 14.9773 134.219 14.5284 135.009 14.2159C135.805 13.8977 136.725 13.7386 137.771 13.7386C138.498 13.7386 139.194 13.8239 139.859 13.9943C140.529 14.1648 141.123 14.429 141.64 14.7869C142.163 15.1449 142.575 15.6051 142.876 16.1676C143.177 16.7244 143.327 17.392 143.327 18.1705V27H139.884V25.1847H139.782C139.572 25.5938 139.29 25.9545 138.938 26.267C138.586 26.5739 138.163 26.8153 137.668 26.9915C137.174 27.1619 136.603 27.2472 135.955 27.2472ZM136.995 24.7415C137.529 24.7415 138.001 24.6364 138.41 24.4261C138.819 24.2102 139.14 23.9205 139.373 23.5568C139.606 23.1932 139.722 22.7812 139.722 22.321V20.9318C139.609 21.0057 139.452 21.0739 139.254 21.1364C139.06 21.1932 138.842 21.2472 138.597 21.2983C138.353 21.3437 138.109 21.3864 137.864 21.4261C137.62 21.4602 137.398 21.4915 137.2 21.5199C136.773 21.5824 136.401 21.6818 136.083 21.8182C135.765 21.9545 135.518 22.1392 135.342 22.3722C135.165 22.5994 135.077 22.8835 135.077 23.2244C135.077 23.7188 135.256 24.0966 135.614 24.358C135.978 24.6136 136.438 24.7415 136.995 24.7415ZM146.144 27V13.9091H149.604V16.2188H149.758C150.031 15.4517 150.485 14.8466 151.121 14.4034C151.758 13.9602 152.519 13.7386 153.406 13.7386C154.303 13.7386 155.067 13.9631 155.698 14.4119C156.329 14.8551 156.749 15.4574 156.96 16.2188H157.096C157.363 15.4688 157.846 14.8693 158.545 14.4205C159.249 13.9659 160.082 13.7386 161.042 13.7386C162.263 13.7386 163.255 14.1278 164.016 14.9062C164.783 15.679 165.167 16.7756 165.167 18.196V27H161.545V18.9119C161.545 18.1847 161.352 17.6392 160.965 17.2756C160.579 16.9119 160.096 16.7301 159.516 16.7301C158.857 16.7301 158.343 16.9403 157.974 17.3608C157.604 17.7756 157.42 18.3239 157.42 19.0057V27H153.9V18.8352C153.9 18.1932 153.715 17.6818 153.346 17.3011C152.982 16.9205 152.502 16.7301 151.906 16.7301C151.502 16.7301 151.138 16.8324 150.815 17.0369C150.496 17.2358 150.244 17.517 150.056 17.8807C149.869 18.2386 149.775 18.6591 149.775 19.142V27H146.144Z" fill="white"/>
<path d="M18 30.25C23.3029 30.25 27.75 26.283 27.75 21.2143C27.75 17.9987 26.0735 14.7857 24.2614 12.2257C22.4289 9.63671 20.3463 7.56161 19.3171 6.59602C18.5717 5.89667 17.4283 5.89667 16.6829 6.59603C15.6537 7.56161 13.5711 9.63671 11.7386 12.2257C9.92655 14.7857 8.25 17.9987 8.25 21.2143C8.25 26.283 12.6971 30.25 18 30.25Z" stroke="url(#paint0_linear_1_5)" stroke-width="2"/>
<path d="M18 25.5C17.3434 25.5 16.6932 25.3707 16.0866 25.1194C15.48 24.8681 14.9288 24.4998 14.4645 24.0355C14.0002 23.5712 13.6319 23.02 13.3806 22.4134C13.1293 21.8068 13 21.1566 13 20.5" stroke="url(#paint1_linear_1_5)" stroke-width="2" stroke-linecap="round"/>
<defs>
<linearGradient id="paint0_linear_1_5" x1="18" y1="6.75" x2="18" y2="29.25" gradientUnits="userSpaceOnUse">
<stop stop-color="#877EFF"/>
<stop offset="0.461458" stop-color="#685DFF"/>
<stop offset="1" stop-color="#3121FF"/>
</linearGradient>
<linearGradient id="paint1_linear_1_5" x1="18" y1="15.5" x2="18" y2="25.5" gradientUnits="userSpaceOnUse">
<stop stop-color="#877EFF"/>
<stop offset="0.461458" stop-color="#685DFF"/>
<stop offset="1" stop-color="#3121FF"/>
</linearGradient>
</defs>
</svg>
